<svg width="371" height="45" viewBox="0 0 371 45" fill="none" xmlns="http://www.w3.org/2000/svg">
<path d="M0 1.14844H13.7578C20.6953 1.14844 25.4766 5.76562 25.4766 12.7266C25.4766 19.6641 20.5312 24.3047 13.4062 24.3047H7.07812V34.9688H0V1.14844ZM7.07812 6.75V18.7734H11.8594C15.9141 18.7734 18.2812 16.6172 18.2812 12.75C18.2812 8.90625 15.9375 6.75 11.8828 6.75H7.07812ZM29.0859 34.9688V9.84375H35.6953V14.3672H35.8359C36.7266 11.1797 38.8594 9.44531 41.8125 9.44531C42.6094 9.44531 43.2891 9.5625 43.7578 9.70312V15.7266C43.1953 15.4922 42.2578 15.3281 41.2734 15.3281C37.8984 15.3281 35.9297 17.3906 35.9297 20.9297V34.9688H29.0859ZM46.6875 34.9688V9.84375H53.5312V34.9688H46.6875ZM50.1094 7.07812C48.0469 7.07812 46.4531 5.50781 46.4531 3.53906C46.4531 1.54688 48.0469 0 50.1094 0C52.1719 0 53.7656 1.54688 53.7656 3.53906C53.7656 5.50781 52.1719 7.07812 50.1094 7.07812ZM80.9297 19.1953H74.5781C74.1797 16.5469 72.4219 14.6719 69.6094 14.6719C66.2344 14.6719 64.125 17.5312 64.125 22.3828C64.125 27.3281 66.2344 30.1406 69.6328 30.1406C72.375 30.1406 74.1562 28.5 74.5781 25.7578H80.9531C80.6016 31.6875 76.1719 35.5078 69.5625 35.5078C61.9922 35.5078 57.1875 30.5859 57.1875 22.3828C57.1875 14.3203 61.9922 9.30469 69.5156 9.30469C76.3125 9.30469 80.625 13.5 80.9297 19.1953ZM84.375 34.9688V9.84375H91.2188V34.9688H84.375ZM87.7969 7.07812C85.7344 7.07812 84.1406 5.50781 84.1406 3.53906C84.1406 1.54688 85.7344 0 87.7969 0C89.8594 0 91.4531 1.54688 91.4531 3.53906C91.4531 5.50781 89.8594 7.07812 87.7969 7.07812ZM95.7891 34.9688V9.84375H102.398V14.3203H102.539C103.875 11.2031 106.523 9.375 110.391 9.375C115.969 9.375 119.109 12.8906 119.109 18.7734V34.9688H112.266V20.2031C112.266 16.9219 110.719 15.0469 107.648 15.0469C104.578 15.0469 102.633 17.2969 102.633 20.5547V34.9688H95.7891ZM135.047 29.625C138.469 29.625 140.648 26.9062 140.648 22.3594C140.648 17.8359 138.469 14.9297 135.047 14.9297C131.672 14.9297 129.539 17.7891 129.539 22.3594C129.539 26.9531 131.648 29.625 135.047 29.625ZM134.93 44.4375C128.32 44.4375 123.844 41.2266 123.305 36.75H130.008C130.547 38.4844 132.516 39.6797 135.117 39.6797C138.656 39.6797 140.625 37.7109 140.625 34.8047V30.3984H140.484C139.312 33.0703 136.359 34.8984 132.727 34.8984C126.586 34.8984 122.531 30.1641 122.531 22.3125C122.531 14.3438 126.469 9.44531 132.844 9.44531C136.453 9.44531 139.289 11.3438 140.602 14.2266H140.719V9.84375H147.469V34.6172C147.469 40.6172 142.453 44.4375 134.93 44.4375Z" fill="#EC2323"/>
<path d="M162.047 1.14844H175.805C182.742 1.14844 187.523 5.76562 187.523 12.7266C187.523 19.6641 182.578 24.3047 175.453 24.3047H169.125V34.9688H162.047V1.14844ZM169.125 6.75V18.7734H173.906C177.961 18.7734 180.328 16.6172 180.328 12.75C180.328 8.90625 177.984 6.75 173.93 6.75H169.125ZM199.195 30.4219C202.172 30.4219 204.633 28.4766 204.633 25.7578V23.9297L199.336 24.2578C196.781 24.4453 195.328 25.5938 195.328 27.375C195.328 29.25 196.875 30.4219 199.195 30.4219ZM196.945 35.3672C192.164 35.3672 188.531 32.2734 188.531 27.75C188.531 23.1797 192.047 20.5312 198.305 20.1562L204.633 19.7812V18.1172C204.633 15.7734 202.992 14.4141 200.414 14.4141C197.859 14.4141 196.242 15.6797 195.914 17.5312H189.656C189.914 12.6562 194.062 9.30469 200.719 9.30469C207.164 9.30469 211.359 12.6328 211.359 17.6953V34.9688H204.75V31.125H204.609C203.203 33.7969 200.086 35.3672 196.945 35.3672ZM238.617 19.1953H232.266C231.867 16.5469 230.109 14.6719 227.297 14.6719C223.922 14.6719 221.812 17.5312 221.812 22.3828C221.812 27.3281 223.922 30.1406 227.32 30.1406C230.062 30.1406 231.844 28.5 232.266 25.7578H238.641C238.289 31.6875 233.859 35.5078 227.25 35.5078C219.68 35.5078 214.875 30.5859 214.875 22.3828C214.875 14.3203 219.68 9.30469 227.203 9.30469C234 9.30469 238.312 13.5 238.617 19.1953ZM249.047 19.9219L257.578 9.84375H265.336L255.75 20.625L265.805 34.9688H257.93L250.734 24.75L248.953 26.6719V34.9688H242.109V1.14844H248.953V19.9219H249.047ZM277.336 30.4219C280.312 30.4219 282.773 28.4766 282.773 25.7578V23.9297L277.477 24.2578C274.922 24.4453 273.469 25.5938 273.469 27.375C273.469 29.25 275.016 30.4219 277.336 30.4219ZM275.086 35.3672C270.305 35.3672 266.672 32.2734 266.672 27.75C266.672 23.1797 270.188 20.5312 276.445 20.1562L282.773 19.7812V18.1172C282.773 15.7734 281.133 14.4141 278.555 14.4141C276 14.4141 274.383 15.6797 274.055 17.5312H267.797C268.055 12.6562 272.203 9.30469 278.859 9.30469C285.305 9.30469 289.5 12.6328 289.5 17.6953V34.9688H282.891V31.125H282.75C281.344 33.7969 278.227 35.3672 275.086 35.3672ZM305.531 29.625C308.953 29.625 311.133 26.9062 311.133 22.3594C311.133 17.8359 308.953 14.9297 305.531 14.9297C302.156 14.9297 300.023 17.7891 300.023 22.3594C300.023 26.9531 302.133 29.625 305.531 29.625ZM305.414 44.4375C298.805 44.4375 294.328 41.2266 293.789 36.75H300.492C301.031 38.4844 303 39.6797 305.602 39.6797C309.141 39.6797 311.109 37.7109 311.109 34.8047V30.3984H310.969C309.797 33.0703 306.844 34.8984 303.211 34.8984C297.07 34.8984 293.016 30.1641 293.016 22.3125C293.016 14.3438 296.953 9.44531 303.328 9.44531C306.938 9.44531 309.773 11.3438 311.086 14.2266H311.203V9.84375H317.953V34.6172C317.953 40.6172 312.938 44.4375 305.414 44.4375ZM333.703 14.3672C330.703 14.3672 328.547 16.6406 328.312 19.7812H338.977C338.836 16.5703 336.75 14.3672 333.703 14.3672ZM339.07 27.2812H345.352C344.602 32.2031 340.102 35.5078 333.891 35.5078C326.156 35.5078 321.516 30.5625 321.516 22.5234C321.516 14.5078 326.203 9.30469 333.633 9.30469C340.945 9.30469 345.562 14.25 345.562 21.8906V23.9766H328.242V24.3984C328.242 27.9844 330.516 30.4453 334.008 30.4453C336.516 30.4453 338.438 29.2031 339.07 27.2812ZM348.68 17.2266C348.68 12.4453 352.828 9.30469 359.273 9.30469C365.578 9.30469 369.68 12.4922 369.773 17.3672H363.469C363.328 15.3516 361.711 14.1094 359.18 14.1094C356.812 14.1094 355.266 15.1875 355.266 16.8047C355.266 18.0469 356.344 18.8906 358.547 19.4062L363.352 20.4375C368.391 21.5625 370.43 23.5547 370.43 27.3047C370.43 32.25 365.883 35.5078 359.25 35.5078C352.547 35.5078 348.422 32.2734 348.047 27.375H354.727C355.055 29.4844 356.719 30.7031 359.438 30.7031C362.039 30.7031 363.609 29.6719 363.609 28.0312C363.609 26.7656 362.766 26.0625 360.516 25.5234L355.875 24.4922C351.117 23.4141 348.68 20.9297 348.68 17.2266Z" fill="#272727"/>
</svg>
