<svg width="388" height="57" viewBox="0 0 388 57" fill="none" xmlns="http://www.w3.org/2000/svg">
<path d="M205.711 46H198.633V12.1797H220.781V18.0156H205.711V27.0859H219.469V32.6875H205.711V46ZM234.961 25.3984C231.961 25.3984 229.805 27.6719 229.57 30.8125H240.234C240.094 27.6016 238.008 25.3984 234.961 25.3984ZM240.328 38.3125H246.609C245.859 43.2344 241.359 46.5391 235.148 46.5391C227.414 46.5391 222.773 41.5938 222.773 33.5547C222.773 25.5391 227.461 20.3359 234.891 20.3359C242.203 20.3359 246.82 25.2812 246.82 32.9219V35.0078H229.5V35.4297C229.5 39.0156 231.773 41.4766 235.266 41.4766C237.773 41.4766 239.695 40.2344 240.328 38.3125ZM260.062 41.4531C263.039 41.4531 265.5 39.5078 265.5 36.7891V34.9609L260.203 35.2891C257.648 35.4766 256.195 36.625 256.195 38.4062C256.195 40.2812 257.742 41.4531 260.062 41.4531ZM257.812 46.3984C253.031 46.3984 249.398 43.3047 249.398 38.7812C249.398 34.2109 252.914 31.5625 259.172 31.1875L265.5 30.8125V29.1484C265.5 26.8047 263.859 25.4453 261.281 25.4453C258.727 25.4453 257.109 26.7109 256.781 28.5625H250.523C250.781 23.6875 254.93 20.3359 261.586 20.3359C268.031 20.3359 272.227 23.6641 272.227 28.7266V46H265.617V42.1562H265.477C264.07 44.8281 260.953 46.3984 257.812 46.3984ZM278.484 15.0859H285.328V20.875H289.969V26.0312H285.328V38.0547C285.328 39.9766 286.266 40.8906 288.281 40.8906C288.891 40.8906 289.523 40.8438 289.945 40.7734V45.8125C289.242 45.9766 288.07 46.0938 286.688 46.0938C280.781 46.0938 278.484 44.125 278.484 39.2266V26.0312H274.945V20.875H278.484V15.0859ZM316.922 20.875V46H310.312V41.4766H310.172C308.93 44.6406 306.445 46.4688 302.648 46.4688C297.211 46.4688 293.602 42.9297 293.602 37.0703V20.875H300.445V35.6406C300.445 38.9922 302.109 40.7734 305.133 40.7734C308.18 40.7734 310.078 38.5938 310.078 35.2656V20.875H316.922ZM321.375 46V20.875H327.984V25.3984H328.125C329.016 22.2109 331.148 20.4766 334.102 20.4766C334.898 20.4766 335.578 20.5938 336.047 20.7344V26.7578C335.484 26.5234 334.547 26.3594 333.562 26.3594C330.188 26.3594 328.219 28.4219 328.219 31.9609V46H321.375ZM349.289 25.3984C346.289 25.3984 344.133 27.6719 343.898 30.8125H354.562C354.422 27.6016 352.336 25.3984 349.289 25.3984ZM354.656 38.3125H360.938C360.188 43.2344 355.688 46.5391 349.477 46.5391C341.742 46.5391 337.102 41.5938 337.102 33.5547C337.102 25.5391 341.789 20.3359 349.219 20.3359C356.531 20.3359 361.148 25.2812 361.148 32.9219V35.0078H343.828V35.4297C343.828 39.0156 346.102 41.4766 349.594 41.4766C352.102 41.4766 354.023 40.2344 354.656 38.3125ZM364.266 28.2578C364.266 23.4766 368.414 20.3359 374.859 20.3359C381.164 20.3359 385.266 23.5234 385.359 28.3984H379.055C378.914 26.3828 377.297 25.1406 374.766 25.1406C372.398 25.1406 370.852 26.2188 370.852 27.8359C370.852 29.0781 371.93 29.9219 374.133 30.4375L378.938 31.4688C383.977 32.5938 386.016 34.5859 386.016 38.3359C386.016 43.2812 381.469 46.5391 374.836 46.5391C368.133 46.5391 364.008 43.3047 363.633 38.4062H370.312C370.641 40.5156 372.305 41.7344 375.023 41.7344C377.625 41.7344 379.195 40.7031 379.195 39.0625C379.195 37.7969 378.352 37.0938 376.102 36.5547L371.461 35.5234C366.703 34.4453 364.266 31.9609 364.266 28.2578Z" fill="#272727"/>
<path d="M87.4984 23.8902C89.9471 21.4415 92.9541 20.3766 96.4797 20.6621C99.9965 20.9476 102.704 22.5211 104.535 25.3199C105.381 24.5029 106.117 23.6422 107.008 22.9608C109.776 20.8476 112.987 20.262 116.448 20.8038C121.25 21.5562 124.239 25.2886 124.906 29.6775C125.039 30.5528 125.095 31.4447 125.099 32.3283C125.117 37.0215 125.11 41.7146 125.106 46.4057C125.104 47.5956 124.722 48.2 123.838 48.4855C122.411 48.9461 121.066 48.0624 121.062 46.6307C121.05 41.8313 121.057 37.034 121.055 32.2345C121.055 30.5444 120.813 28.896 119.872 27.4205C118.289 24.9364 115.872 23.9757 112.896 24.2904C109.813 24.6155 107.726 26.2326 106.764 29.0043C106.452 29.9088 106.341 30.9112 106.332 31.8698C106.29 36.7318 106.316 41.5937 106.31 46.4557C106.308 48.0458 105.089 48.9419 103.58 48.4917C102.678 48.2229 102.212 47.5852 102.206 46.537C102.193 44.7406 102.204 42.9442 102.201 41.1457C102.199 37.9113 102.219 34.677 102.179 31.4426C102.157 29.765 101.703 28.177 100.617 26.8078C98.3567 23.9632 93.8693 23.363 90.6517 25.4511C88.2496 27.0121 87.3499 29.2544 87.3455 31.899C87.3388 36.5922 87.3433 41.2853 87.3433 45.9764C87.3433 46.2306 87.3455 46.4849 87.3344 46.737C87.2857 47.8707 86.4901 48.6084 85.3312 48.6001C84.1478 48.5918 83.308 47.8186 83.3058 46.6766C83.2991 38.7491 83.2991 30.8237 83.3058 22.8962C83.308 21.6979 84.1345 20.8935 85.3179 20.8789C86.5056 20.8643 87.2879 21.6354 87.3344 22.8753C87.3455 23.1858 87.3366 23.4964 87.3366 23.8069C87.3898 23.834 87.4452 23.8611 87.4984 23.8902Z" fill="#272727"/>
<path d="M138.544 25.6178C139.504 24.7905 140.341 23.9319 141.318 23.2463C148.611 18.1259 159.071 20.6579 162.882 28.4396C165.836 34.4685 164.287 41.6771 158.942 45.7117C154.047 49.4066 148.5 49.9401 142.863 47.5518C137.407 45.2407 134.518 40.9727 134.407 35.3626C134.245 27.2288 134.374 19.0908 134.391 10.957C134.394 9.75659 135.231 8.98968 136.45 9.0001C137.706 9.01052 138.529 9.77118 138.54 11.0153C138.562 13.8475 138.549 16.6796 138.549 19.5117C138.544 21.5353 138.544 23.5609 138.544 25.6178ZM160.272 35.348C160.27 32.6576 159.698 30.634 158.696 29.1023C156.7 26.0492 153.781 24.4591 150.001 24.2278C146.092 23.9882 142.859 25.2886 140.598 28.2853C137.873 31.9032 137.655 35.8627 139.716 39.7994C142.477 45.0761 148.897 46.5599 153.914 44.3821C158.222 42.5127 160.117 39.0929 160.272 35.348Z" fill="#EC2323"/>
<path d="M27.7675 36.017C28.2262 39.7932 29.999 42.69 33.5888 44.303C37.7704 46.1827 41.8589 45.7743 45.7058 43.3172C46.0892 43.0713 46.5102 42.8337 46.9512 42.7233C47.7556 42.5232 48.6553 43.0046 49.0032 43.7236C49.3511 44.4468 49.1649 45.1407 48.4226 45.6826C46.1955 47.3081 43.6737 48.3313 40.8838 48.6689C35.8447 49.2795 31.3706 48.1 27.7985 44.5947C24.9288 41.7772 23.8408 38.274 23.905 34.4353C23.9516 31.6219 24.6141 28.9398 26.2695 26.5557C28.6893 23.0734 32.0908 21.0894 36.5339 20.7143C40.8018 20.3538 44.5646 21.3895 47.5739 24.3238C50.4613 27.1392 51.5405 30.6257 51.4518 34.4749C51.4341 35.2397 50.9089 35.7857 50.1111 35.9253C49.7389 35.9899 49.3533 36.0108 48.9744 36.0108C42.2134 36.0149 35.4525 36.0149 28.6915 36.0149C28.4123 36.017 28.1287 36.017 27.7675 36.017ZM47.6403 32.791C47.319 28.3125 43.8621 23.6965 37.0568 24.1028C32.3745 24.3821 27.8716 28.5709 27.9603 32.791C34.504 32.791 41.0478 32.791 47.6403 32.791Z" fill="#272727"/>
<path d="M9.48889 21.8896C11.4434 21.8896 13.3026 21.8855 15.1618 21.8938C15.4742 21.8959 15.7933 21.9042 16.0947 21.9709C16.9434 22.1564 17.4819 22.8316 17.4598 23.6318C17.4376 24.4175 16.9102 25.0239 16.0659 25.1948C15.7845 25.2532 15.4875 25.2594 15.1972 25.2594C13.3358 25.2657 11.4722 25.2615 9.57088 25.2615C9.53986 25.4303 9.49111 25.5679 9.49111 25.7033C9.49997 30.2902 9.46894 34.8771 9.53986 39.4639C9.58196 42.1335 11.8556 44.7885 15.102 44.7447C15.6848 44.7364 16.272 44.7302 16.8526 44.7802C17.8897 44.8698 18.5434 45.5387 18.6231 46.5286C18.6985 47.4664 18.078 48.275 17.0808 48.4772C15.667 48.7627 14.2621 48.5835 12.8771 48.2938C8.8795 47.4581 5.86798 44.1737 5.52229 40.1975C5.38269 38.6011 5.40706 36.9881 5.3982 35.3835C5.38047 32.0449 5.39376 28.7064 5.39376 25.2594C4.70238 25.2594 4.0398 25.2594 3.37501 25.2594C2.83653 25.2594 2.29583 25.2803 1.75735 25.249C0.700328 25.1886 0.00894385 24.5238 7.99427e-05 23.6006C-0.00878396 22.6586 0.720271 21.9355 1.78394 21.898C2.74789 21.8646 3.71627 21.8875 4.68244 21.8875C4.88187 21.8875 5.08353 21.8875 5.39155 21.8875C5.39155 21.6291 5.39155 21.4082 5.39155 21.1852C5.39155 18.8387 5.38269 16.4921 5.39598 14.1455C5.40263 12.7888 6.24027 12.0282 7.61417 12.0949C8.505 12.1386 9.23848 12.7221 9.39582 13.5516C9.4623 13.9017 9.48224 14.2664 9.48446 14.6227C9.4911 17.0152 9.48889 19.4013 9.48889 21.8896Z" fill="#272727"/>
<path d="M62.5466 24.9551C63.5371 24.086 64.3061 23.2483 65.239 22.6231C68.2749 20.5828 71.6299 20.0702 75.2087 21.0809C76.4297 21.4269 76.9283 22.2584 76.6557 23.2316C76.4208 24.0694 75.6031 24.4216 74.3001 24.3132C72.2836 24.1444 70.2626 24.0277 68.297 24.6404C65.3099 25.5698 63.2513 27.3308 62.7039 30.3713C62.6109 30.8882 62.6264 31.4238 62.6264 31.951C62.6219 36.6838 62.6241 41.4186 62.6219 46.1513C62.6219 46.3826 62.6286 46.6181 62.602 46.8474C62.4646 48.029 61.7156 48.6479 60.4968 48.5979C59.298 48.55 58.6243 47.9165 58.6199 46.7203C58.6022 41.8395 58.6088 36.9588 58.6066 32.0761C58.6066 28.9917 58.5955 25.9054 58.6154 22.8211C58.6243 21.3227 59.7567 20.5683 61.2923 20.9788C62.0192 21.1726 62.4823 21.6228 62.5355 22.3146C62.5953 23.1545 62.5466 23.9985 62.5466 24.9551Z" fill="#272727"/>
<path d="M173.366 34.7373C173.366 30.8257 173.359 26.9161 173.368 23.0044C173.372 21.4915 174.549 20.5891 176.005 20.9601C176.747 21.1497 177.199 21.6207 177.354 22.3126C177.439 22.6814 177.452 23.0691 177.452 23.4463C177.456 30.9924 177.456 38.5406 177.454 46.0867C177.454 46.3389 177.445 46.5952 177.416 46.8453C177.281 47.9456 176.433 48.6542 175.342 48.5875C174.163 48.5146 173.372 47.7643 173.37 46.6577C173.359 42.6877 173.366 38.7115 173.366 34.7373Z" fill="#272727"/>
<path d="M172.535 12.7704C172.542 11.2283 173.823 10.0612 175.465 10.0967C177.076 10.1321 178.326 11.3325 178.306 12.8184C178.286 14.3355 176.996 15.5213 175.369 15.5192C173.716 15.5171 172.529 14.3668 172.535 12.7704Z" fill="#272727"/>
<path d="M146.059 34.7331C146.065 32.9993 147.506 31.6863 149.354 31.728C151.164 31.7697 152.571 33.116 152.547 34.7873C152.523 36.4941 151.073 37.8258 149.245 37.8237C147.386 37.8216 146.05 36.5274 146.059 34.7331Z" fill="#A6A6A6"/>
</svg>
