<svg width="414" height="76" viewBox="0 0 414 76" fill="none" xmlns="http://www.w3.org/2000/svg">
<path d="M279.043 30.1303C282.683 26.491 287.152 24.9083 292.392 25.3326C297.618 25.757 301.643 28.0954 304.363 32.255C305.621 31.0409 306.715 29.7617 308.039 28.7489C312.152 25.6083 316.924 24.7379 322.069 25.5432C329.206 26.6614 333.648 32.2086 334.64 38.7314C334.837 40.0323 334.92 41.3579 334.926 42.6711C334.953 49.6462 334.943 56.6213 334.936 63.5932C334.933 65.3618 334.366 66.26 333.052 66.6843C330.931 67.3688 328.932 66.0555 328.926 63.9277C328.909 56.7947 328.919 49.6648 328.916 42.5318C328.916 40.0199 328.557 37.5699 327.157 35.3771C324.805 31.6851 321.212 30.2573 316.789 30.725C312.208 31.2082 309.106 33.6116 307.676 37.731C307.212 39.0752 307.047 40.565 307.034 41.9897C306.972 49.2157 307.011 56.4416 307.001 63.6675C306.998 66.0308 305.187 67.3626 302.944 66.6936C301.603 66.294 300.912 65.3463 300.902 63.7883C300.882 61.1185 300.898 58.4487 300.895 55.7757C300.892 50.9687 300.922 46.1618 300.862 41.3548C300.829 38.8615 300.154 36.5014 298.54 34.4665C295.181 30.2387 288.512 29.3467 283.73 32.4502C280.16 34.77 278.823 38.1027 278.816 42.0331C278.806 49.0082 278.813 55.9832 278.813 62.9552C278.813 63.333 278.816 63.7109 278.8 64.0857C278.727 65.7706 277.545 66.867 275.822 66.8546C274.064 66.8422 272.815 65.6932 272.812 63.9959C272.802 52.2138 272.802 40.4349 272.812 28.6529C272.815 26.872 274.044 25.6764 275.803 25.6547C277.568 25.6331 278.73 26.7791 278.8 28.6219C278.816 29.0834 278.803 29.5449 278.803 30.0064C278.882 30.0467 278.964 30.0869 279.043 30.1303Z" fill="#272727"/>
<path d="M354.907 32.6978C356.333 31.4682 357.578 30.1921 359.031 29.1731C369.869 21.5631 385.414 25.3263 391.079 36.8915C395.469 45.8519 393.167 56.5654 385.223 62.5617C377.948 68.0531 369.705 68.846 361.326 65.2966C353.218 61.8617 348.923 55.5185 348.759 47.1806C348.518 35.092 348.709 22.9971 348.736 10.9085C348.739 9.12446 349.984 7.98467 351.795 8.00016C353.662 8.01564 354.884 9.14615 354.901 10.9952C354.934 15.2044 354.914 19.4136 354.914 23.6228C354.907 26.6302 354.907 29.6408 354.907 32.6978ZM387.2 47.159C387.196 43.1604 386.346 40.1529 384.858 37.8764C381.89 33.3389 377.553 30.9757 371.934 30.6319C366.125 30.2757 361.32 32.2084 357.96 36.6623C353.909 42.0392 353.587 47.924 356.65 53.7747C360.753 61.617 370.294 63.8223 377.751 60.5856C384.153 57.8074 386.969 52.7247 387.2 47.159Z" fill="#EC2323"/>
<path d="M190.266 48.1533C190.948 53.7656 193.582 58.0708 198.918 60.4681C205.132 63.2618 211.209 62.6547 216.926 59.0031C217.496 58.6376 218.122 58.2845 218.777 58.1203C219.973 57.823 221.31 58.5385 221.827 59.607C222.344 60.6818 222.067 61.7132 220.964 62.5185C217.654 64.9343 213.906 66.4551 209.76 66.9569C202.27 67.8644 195.621 66.1113 190.312 60.9017C186.047 56.7142 184.43 51.5077 184.525 45.8025C184.595 41.6212 185.579 37.635 188.04 34.0917C191.636 28.9162 196.691 25.9676 203.295 25.4101C209.638 24.8742 215.23 26.4136 219.703 30.7745C223.994 34.959 225.598 40.1407 225.466 45.8614C225.44 46.998 224.659 47.8095 223.474 48.017C222.92 48.1131 222.347 48.144 221.784 48.144C211.736 48.1502 201.688 48.1502 191.639 48.1502C191.224 48.1533 190.803 48.1533 190.266 48.1533ZM219.801 43.3588C219.324 36.7027 214.186 29.8423 204.072 30.4462C197.113 30.8613 190.421 37.0868 190.552 43.3588C200.278 43.3588 210.003 43.3588 219.801 43.3588Z" fill="#272727"/>
<path d="M163.103 27.1569C166.007 27.1569 168.771 27.1507 171.534 27.1631C171.998 27.1662 172.472 27.1786 172.92 27.2777C174.182 27.5534 174.982 28.5569 174.949 29.7463C174.916 30.9139 174.132 31.8152 172.877 32.0692C172.459 32.1559 172.018 32.1652 171.586 32.1652C168.82 32.1745 166.05 32.1683 163.224 32.1683C163.178 32.4192 163.106 32.6236 163.106 32.8249C163.119 39.642 163.073 46.4591 163.178 53.2762C163.241 57.2438 166.62 61.1898 171.445 61.1247C172.311 61.1123 173.184 61.103 174.047 61.1774C175.588 61.3105 176.56 62.3048 176.678 63.776C176.79 65.1697 175.868 66.3715 174.386 66.6719C172.285 67.0962 170.197 66.8299 168.138 66.3994C162.197 65.1574 157.721 60.2761 157.207 54.3665C157 51.9939 157.036 49.5967 157.023 47.2118C156.997 42.2499 157.016 37.2881 157.016 32.1652C155.989 32.1652 155.004 32.1652 154.016 32.1652C153.216 32.1652 152.412 32.1962 151.612 32.1497C150.041 32.0599 149.013 31.0719 149 29.6998C148.987 28.2998 150.07 27.2251 151.651 27.1693C153.084 27.1198 154.523 27.1538 155.959 27.1538C156.256 27.1538 156.555 27.1538 157.013 27.1538C157.013 26.7698 157.013 26.4415 157.013 26.1101C157.013 22.6225 157 19.135 157.02 15.6475C157.03 13.6312 158.274 12.5007 160.316 12.5998C161.64 12.6648 162.73 13.532 162.964 14.7648C163.063 15.2851 163.093 15.8271 163.096 16.3568C163.106 19.9124 163.103 23.4588 163.103 27.1569Z" fill="#272727"/>
<path d="M241.958 31.7131C243.43 30.4215 244.573 29.1764 245.959 28.2473C250.471 25.215 255.458 24.4531 260.777 25.9553C262.591 26.4694 263.332 27.7052 262.927 29.1517C262.578 30.3968 261.363 30.9202 259.426 30.7591C256.429 30.5083 253.426 30.3348 250.504 31.2454C246.065 32.6268 243.005 35.244 242.192 39.7629C242.053 40.531 242.077 41.327 242.077 42.1106C242.07 49.1445 242.073 56.1815 242.07 63.2154C242.07 63.5592 242.08 63.9092 242.04 64.2499C241.836 66.0061 240.723 66.926 238.912 66.8516C237.13 66.7804 236.129 65.8388 236.122 64.061C236.096 56.8072 236.106 49.5534 236.102 42.2965C236.102 37.7125 236.086 33.1255 236.115 28.5415C236.129 26.3146 237.812 25.1933 240.094 25.8035C241.174 26.0916 241.862 26.7606 241.941 27.7889C242.03 29.0371 241.958 30.2915 241.958 31.7131Z" fill="#272727"/>
<path d="M406.662 46.2514C406.662 40.4378 406.652 34.6273 406.665 28.8137C406.672 26.5651 408.42 25.224 410.584 25.7753C411.688 26.0572 412.359 26.7571 412.59 27.7854C412.715 28.3336 412.735 28.9097 412.735 29.4703C412.741 40.6856 412.741 51.9039 412.738 63.1191C412.738 63.4939 412.725 63.8748 412.682 64.2465C412.481 65.8819 411.22 66.9349 409.599 66.8358C407.847 66.7274 406.672 65.6124 406.668 63.9677C406.652 58.0674 406.662 52.1579 406.662 46.2514Z" fill="#272727"/>
<path d="M405.424 13.6036C405.434 11.3116 407.337 9.57718 409.778 9.62983C412.172 9.68248 414.03 11.4665 414 13.6749C413.97 15.9297 412.054 17.692 409.636 17.6889C407.179 17.6858 405.414 15.9761 405.424 13.6036Z" fill="#272727"/>
<path d="M366.078 46.245C366.088 43.6681 368.229 41.7168 370.976 41.7788C373.666 41.8407 375.758 43.8416 375.721 46.3256C375.685 48.8622 373.531 50.8414 370.814 50.8383C368.051 50.8352 366.065 48.9118 366.078 46.245Z" fill="#A6A6A6"/>
<path d="M29.4062 25.2188L19 61H13.6875L1.40625 15.9062H7.28125L16.3125 52.7188H16.5625L26.7188 15.9062H32.4062L42.5625 52.7188H42.8125L51.8438 15.9062H57.7188L45.4375 61H40.125L29.7188 25.2188H29.4062ZM62.9375 61V15.9062H68.375V33.6875H68.5C70.3125 30.0625 73.875 27.9375 78.8125 27.9375C85.9375 27.9375 90.25 32.75 90.25 40V61H84.8125V41C84.8125 35.8438 82.2188 32.75 77.125 32.75C71.7188 32.75 68.375 36.4375 68.375 42.0625V61H62.9375ZM99.8438 73.1562C99.1875 73.1562 98.0938 73.0938 97.5 72.9688V68.4062C98.0938 68.5312 98.9375 68.5625 99.625 68.5625C102.656 68.5625 104.344 67.0938 105.594 63.3125L106.344 61.0312L94.3438 28.5H100.156L109.156 55.5625H109.25L118.25 28.5H123.969L111.188 63.2812C108.406 70.875 105.719 73.1562 99.8438 73.1562Z" fill="#EC2323"/>
</svg>
