<svg width="291" height="65" viewBox="0 0 291 65" fill="none" xmlns="http://www.w3.org/2000/svg">
<path d="M142.411 24.1594C146.396 20.1864 151.291 18.4585 157.029 18.9218C162.753 19.385 167.16 21.9379 170.139 26.4789C171.517 25.1535 172.715 23.757 174.164 22.6513C178.669 19.2227 183.895 18.2726 189.529 19.1517C197.345 20.3723 202.21 26.4282 203.296 33.5492C203.512 34.9693 203.602 36.4165 203.609 37.8502C203.638 45.4648 203.627 53.0794 203.62 60.6907C203.617 62.6214 202.996 63.6019 201.557 64.0652C199.235 64.8124 197.045 63.3788 197.038 61.0558C197.02 53.2688 197.031 45.4851 197.027 37.698C197.027 34.9558 196.634 32.2812 195.101 29.8872C192.526 25.8568 188.591 24.298 183.747 24.8086C178.73 25.3361 175.333 27.9599 173.768 32.457C173.259 33.9245 173.079 35.5509 173.064 37.1063C172.996 44.9948 173.039 52.8833 173.028 60.7718C173.025 63.3517 171.041 64.8057 168.585 64.0753C167.117 63.6391 166.36 62.6045 166.349 60.9037C166.327 57.989 166.345 55.0744 166.341 52.1563C166.338 46.9086 166.37 41.6608 166.305 36.4131C166.269 33.6912 165.53 31.1147 163.763 28.8932C160.084 24.2777 152.78 23.3039 147.543 26.6919C143.634 29.2245 142.169 32.8628 142.162 37.1536C142.151 44.7682 142.159 52.3829 142.159 59.9941C142.159 60.4066 142.162 60.8191 142.144 61.2283C142.065 63.0677 140.77 64.2647 138.884 64.2511C136.958 64.2376 135.591 62.9832 135.587 61.1302C135.576 48.2679 135.576 35.4089 135.587 22.5465C135.591 20.6023 136.936 19.2971 138.862 19.2734C140.795 19.2498 142.068 20.5008 142.144 22.5127C142.162 23.0165 142.148 23.5203 142.148 24.0241C142.234 24.0681 142.325 24.112 142.411 24.1594Z" fill="#272727"/>
<path d="M225.492 26.9624C227.054 25.6201 228.417 24.227 230.008 23.1146C241.877 14.8068 258.901 18.915 265.104 31.5407C269.912 41.3227 267.391 53.0185 258.692 59.5647C250.724 65.5597 241.697 66.4253 232.521 62.5504C223.642 58.8005 218.939 51.8757 218.758 42.7733C218.495 29.5762 218.704 16.3723 218.733 3.17519C218.737 1.22757 220.1 -0.0167362 222.084 0.000170139C224.129 0.0170765 225.467 1.25124 225.485 3.26986C225.521 7.86501 225.499 12.4602 225.499 17.0553C225.492 20.3385 225.492 23.6251 225.492 26.9624ZM260.856 42.7496C260.852 38.3844 259.921 35.1012 258.291 32.6159C255.042 27.6624 250.292 25.0825 244.139 24.7071C237.776 24.3183 232.514 26.4282 228.835 31.2905C224.399 37.1604 224.046 43.5848 227.4 49.972C231.894 58.5334 242.342 60.9409 250.508 57.4074C257.519 54.3744 260.603 48.8258 260.856 42.7496Z" fill="#EC2323"/>
<path d="M45.1922 43.8352C45.9388 49.9621 48.8241 54.6621 54.667 57.2792C61.4728 60.3291 68.1271 59.6664 74.3884 55.6798C75.0123 55.2808 75.6976 54.8954 76.4153 54.7162C77.7246 54.3916 79.1889 55.1726 79.7551 56.3392C80.3214 57.5125 80.0184 58.6385 78.8102 59.5176C75.1854 62.155 71.081 63.8152 66.5402 64.3629C58.3386 65.3537 51.0567 63.4399 45.2427 57.7526C40.572 53.1811 38.8011 47.4972 38.9057 41.2688C38.9815 36.7041 40.0599 32.3524 42.7541 28.4843C46.6926 22.8341 52.2288 19.6152 59.4603 19.0065C66.4067 18.4216 72.5309 20.1021 77.4288 24.8629C82.1283 29.431 83.8848 35.0879 83.7405 41.3331C83.7117 42.574 82.8569 43.4599 81.5585 43.6865C80.9525 43.7913 80.325 43.8251 79.7082 43.8251C68.7042 43.8319 57.7002 43.8319 46.6962 43.8319C46.2417 43.8352 45.7801 43.8352 45.1922 43.8352ZM77.537 38.601C77.014 31.3347 71.3876 23.8451 60.3114 24.5045C52.6905 24.9576 45.3617 31.7539 45.506 38.601C56.1565 38.601 66.8071 38.601 77.537 38.601Z" fill="#272727"/>
<path d="M15.444 20.9132C18.6251 20.9132 21.6511 20.9065 24.6771 20.92C25.1857 20.9234 25.705 20.9369 26.1955 21.0451C27.5769 21.346 28.4533 22.4416 28.4173 23.74C28.3812 25.0147 27.5228 25.9987 26.1486 26.2759C25.6906 26.3706 25.2073 26.3808 24.7348 26.3808C21.7052 26.3909 18.672 26.3841 15.5774 26.3841C15.5269 26.658 15.4476 26.8812 15.4476 27.101C15.462 34.5431 15.4115 41.9853 15.5269 49.4275C15.5955 53.7589 19.2959 58.0667 24.5797 57.9957C25.5283 57.9821 26.4841 57.972 27.429 58.0531C29.1169 58.1985 30.1809 59.2839 30.3108 60.89C30.4334 62.4116 29.4235 63.7235 27.8005 64.0515C25.4994 64.5148 23.2128 64.224 20.9586 63.754C14.4521 62.3981 9.55065 57.0692 8.988 50.6177C8.76078 48.0277 8.80046 45.4106 8.78603 42.807C8.75718 37.3902 8.77882 31.9734 8.77882 26.3808C7.65353 26.3808 6.57513 26.3808 5.49312 26.3808C4.61669 26.3808 3.73666 26.4146 2.86024 26.3638C1.13984 26.2658 0.0145569 25.1872 0.000130114 23.6893C-0.0142967 22.1609 1.1723 20.9876 2.90352 20.9268C4.47243 20.8727 6.04855 20.9099 7.62107 20.9099C7.94567 20.9099 8.27388 20.9099 8.77521 20.9099C8.77521 20.4906 8.77521 20.1322 8.77521 19.7704C8.77521 15.963 8.76078 12.1557 8.78242 8.34842C8.79324 6.14721 10.1566 4.91305 12.3927 5.02125C13.8426 5.09226 15.0364 6.03901 15.2925 7.38476C15.4007 7.95281 15.4332 8.54454 15.4368 9.12274C15.4476 13.0044 15.444 16.876 15.444 20.9132Z" fill="#272727"/>
<path d="M101.8 25.8873C103.412 24.4773 104.663 23.118 106.182 22.1036C111.123 18.7934 116.583 17.9616 122.408 19.6015C124.395 20.1628 125.207 21.5119 124.763 23.0909C124.381 24.4502 123.05 25.0217 120.929 24.8458C117.647 24.5719 114.358 24.3826 111.159 25.3767C106.297 26.8847 102.946 29.7419 102.056 34.6752C101.904 35.5137 101.929 36.3827 101.929 37.2382C101.922 44.9171 101.926 52.5993 101.922 60.2782C101.922 60.6535 101.933 61.0356 101.89 61.4075C101.666 63.3247 100.447 64.329 98.4633 64.2478C96.5121 64.17 95.4157 63.1421 95.4085 61.2013C95.3796 53.2823 95.3904 45.3634 95.3868 37.4411C95.3868 32.4368 95.3688 27.4291 95.4013 22.4248C95.4157 19.9937 97.2587 18.7697 99.7581 19.4358C100.941 19.7503 101.695 20.4806 101.781 21.6032C101.879 22.9658 101.8 24.3353 101.8 25.8873Z" fill="#272727"/>
<path d="M282.169 41.7586C282.169 35.4119 282.158 29.0687 282.173 22.722C282.18 20.2672 284.095 18.8031 286.465 19.405C287.673 19.7127 288.409 20.4769 288.661 21.5995C288.798 22.1979 288.82 22.8269 288.82 23.4389C288.827 35.6825 288.827 47.9294 288.823 60.173C288.823 60.5821 288.809 60.998 288.762 61.4038C288.542 63.1891 287.161 64.3387 285.386 64.2305C283.467 64.1122 282.18 62.8949 282.176 61.0995C282.158 54.6582 282.169 48.2067 282.169 41.7586Z" fill="#272727"/>
<path d="M280.814 6.11763C280.825 3.61549 282.91 1.72198 285.583 1.77946C288.205 1.83694 290.239 3.78456 290.206 6.1954C290.174 8.65697 288.075 10.5809 285.427 10.5775C282.737 10.5742 280.804 8.70769 280.814 6.11763Z" fill="#272727"/>
<path d="M237.725 41.7519C237.736 38.9387 240.08 36.8084 243.088 36.8761C246.034 36.9437 248.325 39.128 248.285 41.8398C248.245 44.609 245.887 46.7697 242.911 46.7663C239.885 46.7629 237.71 44.6631 237.725 41.7519Z" fill="#A6A6A6"/>
</svg>
