<svg width="32" height="32" viewBox="0 0 32 32" fill="none" xmlns="http://www.w3.org/2000/svg">
<path d="M23.4882 20.6864C25.425 18.0435 26.2925 14.7668 25.9171 11.5118C25.5417 8.25676 23.9511 5.26352 21.4635 3.13088C18.976 0.99824 15.7749 -0.11651 12.5008 0.00964916C9.22659 0.135808 6.1208 1.49357 3.80472 3.8113C1.48865 6.12903 0.13311 9.2358 0.00929403 12.5101C-0.114522 15.7843 1.00252 18.9846 3.13693 21.4706C5.27135 23.9566 8.26574 25.5451 11.521 25.9181C14.7763 26.2912 18.0524 25.4214 20.6939 23.4827H20.6919C20.7506 23.5627 20.8159 23.6394 20.888 23.7127L28.5887 31.4135C28.9638 31.7889 29.4726 31.9998 30.0032 32C30.5338 32.0002 31.0427 31.7896 31.418 31.4145C31.7934 31.0395 32.0043 30.5307 32.0045 30.0001C32.0047 29.4695 31.7941 28.9606 31.419 28.5852L23.7182 20.8844C23.6468 20.812 23.5699 20.7472 23.4882 20.6864ZM24.0043 12.9976C24.0043 14.4423 23.7197 15.8729 23.1669 17.2076C22.614 18.5423 21.8037 19.7551 20.7821 20.7766C19.7606 21.7982 18.5478 22.6085 17.2131 23.1614C15.8784 23.7142 14.4478 23.9988 13.0031 23.9988C11.5584 23.9988 10.1279 23.7142 8.79319 23.1614C7.45847 22.6085 6.24571 21.7982 5.22416 20.7766C4.20261 19.7551 3.39227 18.5423 2.83941 17.2076C2.28656 15.8729 2.002 14.4423 2.002 12.9976C2.002 10.08 3.16105 7.28177 5.22416 5.21866C7.28727 3.15555 10.0855 1.9965 13.0031 1.9965C15.9208 1.9965 18.719 3.15555 20.7821 5.21866C22.8452 7.28177 24.0043 10.08 24.0043 12.9976Z" fill="#A6A6A6"/>
</svg>
