<svg width="36" height="48" viewBox="0 0 36 48" fill="none" xmlns="http://www.w3.org/2000/svg">
<path d="M18 48C18 48 36 30.942 36 18C36 13.2261 34.1036 8.64773 30.7279 5.27208C27.3523 1.89642 22.7739 0 18 0C13.2261 0 8.64773 1.89642 5.27208 5.27208C1.89642 8.64773 7.11366e-08 13.2261 0 18C0 30.942 18 48 18 48ZM18 27C15.6131 27 13.3239 26.0518 11.636 24.364C9.94821 22.6761 9 20.3869 9 18C9 15.6131 9.94821 13.3239 11.636 11.636C13.3239 9.94821 15.6131 9 18 9C20.3869 9 22.6761 9.94821 24.364 11.636C26.0518 13.3239 27 15.6131 27 18C27 20.3869 26.0518 22.6761 24.364 24.364C22.6761 26.0518 20.3869 27 18 27Z" fill="#E87808"/>
</svg>
