<svg width="19" height="13" viewBox="0 0 19 13" fill="none" xmlns="http://www.w3.org/2000/svg">
<path d="M12.7139 0.25C12.9507 0.250095 13.1782 0.344216 13.3457 0.511719L18.4883 5.6543H18.4873C18.5704 5.73723 18.6366 5.83587 18.6816 5.94434C18.7266 6.05273 18.75 6.1688 18.75 6.28613C18.75 6.40346 18.7266 6.51954 18.6816 6.62793C18.6367 6.73621 18.5702 6.83415 18.4873 6.91699L18.4883 6.91797L13.3457 12.0605C13.1782 12.2281 12.9507 12.3222 12.7139 12.3223C12.477 12.3223 12.2496 12.228 12.082 12.0605C11.9144 11.893 11.8203 11.6657 11.8203 11.4287C11.8203 11.1917 11.9144 10.9645 12.082 10.7969L15.7012 7.17871H1.14258C0.905875 7.17865 0.679099 7.08437 0.511719 6.91699C0.344365 6.74957 0.25 6.52286 0.25 6.28613C0.250006 6.0494 0.344356 5.82269 0.511719 5.65527C0.679097 5.4879 0.905873 5.39362 1.14258 5.39355H15.7012L12.082 1.77539C11.9144 1.6078 11.8203 1.38056 11.8203 1.14355C11.8203 0.906577 11.9145 0.67929 12.082 0.511719C12.2496 0.344267 12.477 0.25 12.7139 0.25Z" fill="white" stroke="white" stroke-width="0.5"/>
</svg>
