<svg width="26" height="36" viewBox="0 0 26 36" fill="none" xmlns="http://www.w3.org/2000/svg">
<g clip-path="url(#clip0_5507_340)">
<path fill-rule="evenodd" clip-rule="evenodd" d="M23.5319 10.2655C23.3833 10.1169 23.1819 10.0335 22.9718 10.0335H2.37639C2.1663 10.0335 1.96482 10.1169 1.81627 10.2655C1.66772 10.414 1.58426 10.6155 1.58426 10.8256V25.084C1.58426 25.294 1.66772 25.4955 1.81627 25.6441C1.96482 25.7926 2.1663 25.8761 2.37639 25.8761H22.9718C23.1819 25.8761 23.3833 25.7926 23.5319 25.6441C23.6804 25.4955 23.7639 25.294 23.7639 25.084V10.8256C23.7639 10.6155 23.6804 10.414 23.5319 10.2655ZM0.696029 9.14525C1.14169 8.69959 1.74613 8.44922 2.37639 8.44922H22.9718C23.602 8.44922 24.2065 8.69959 24.6521 9.14525C25.0978 9.59091 25.3482 10.1954 25.3482 10.8256V25.084C25.3482 25.7142 25.0978 26.3187 24.6521 26.7643C24.2065 27.21 23.602 27.4603 22.9718 27.4603H2.37639C1.74613 27.4603 1.14169 27.21 0.696029 26.7643C0.250369 26.3187 0 25.7142 0 25.084V10.8256C0 10.1954 0.250369 9.59091 0.696029 9.14525ZM8.15331 17.3947C8.00476 17.5432 7.9213 17.7447 7.9213 17.9548C7.9213 18.1649 8.00476 18.3663 8.15331 18.5149C8.30186 18.6635 8.50335 18.7469 8.71343 18.7469H19.8033C20.0133 18.7469 20.2148 18.6635 20.3634 18.5149C20.5119 18.3663 20.5954 18.1649 20.5954 17.9548C20.5954 17.7447 20.5119 17.5432 20.3634 17.3947C20.2148 17.2461 20.0133 17.1626 19.8033 17.1626H8.71343C8.50335 17.1626 8.30186 17.2461 8.15331 17.3947ZM8.15331 13.434C8.00476 13.5826 7.9213 13.784 7.9213 13.9941C7.9213 14.2042 8.00476 14.4057 8.15331 14.5542C8.30186 14.7028 8.50335 14.7863 8.71343 14.7863H19.8033C20.0133 14.7863 20.2148 14.7028 20.3634 14.5542C20.5119 14.4057 20.5954 14.2042 20.5954 13.9941C20.5954 13.784 20.5119 13.5826 20.3634 13.434C20.2148 13.2855 20.0133 13.202 19.8033 13.202H8.71343C8.50335 13.202 8.30186 13.2855 8.15331 13.434ZM8.15331 21.3553C8.00476 21.5039 7.9213 21.7053 7.9213 21.9154C7.9213 22.1255 8.00476 22.327 8.15331 22.4756C8.30186 22.6241 8.50335 22.7076 8.71343 22.7076H19.8033C20.0133 22.7076 20.2148 22.6241 20.3634 22.4756C20.5119 22.327 20.5954 22.1255 20.5954 21.9154C20.5954 21.7053 20.5119 21.5039 20.3634 21.3553C20.2148 21.2068 20.0133 21.1233 19.8033 21.1233H8.71343C8.50335 21.1233 8.30186 21.2068 8.15331 21.3553ZM6.10503 14.5542C6.25358 14.4057 6.33704 14.2042 6.33704 13.9941C6.33704 13.784 6.25358 13.5826 6.10503 13.434C5.95648 13.2855 5.755 13.202 5.54491 13.202C5.33482 13.202 5.13334 13.2855 4.98479 13.434C4.83624 13.5826 4.75278 13.784 4.75278 13.9941C4.75278 14.2042 4.83624 14.4057 4.98479 14.5542C5.13334 14.7028 5.33482 14.7863 5.54491 14.7863C5.755 14.7863 5.95648 14.7028 6.10503 14.5542ZM6.10503 18.5149C6.25358 18.3663 6.33704 18.1649 6.33704 17.9548C6.33704 17.7447 6.25358 17.5432 6.10503 17.3947C5.95648 17.2461 5.755 17.1626 5.54491 17.1626C5.33482 17.1626 5.13334 17.2461 4.98479 17.3947C4.83624 17.5432 4.75278 17.7447 4.75278 17.9548C4.75278 18.1649 4.83624 18.3663 4.98479 18.5149C5.13334 18.6635 5.33482 18.7469 5.54491 18.7469C5.755 18.7469 5.95648 18.6635 6.10503 18.5149ZM6.10503 22.4756C6.25358 22.327 6.33704 22.1255 6.33704 21.9154C6.33704 21.7053 6.25358 21.5039 6.10503 21.3553C5.95648 21.2068 5.755 21.1233 5.54491 21.1233C5.33482 21.1233 5.13334 21.2068 4.98479 21.3553C4.83624 21.5039 4.75278 21.7053 4.75278 21.9154C4.75278 22.1255 4.83624 22.327 4.98479 22.4756C5.13334 22.6241 5.33482 22.7076 5.54491 22.7076C5.755 22.7076 5.95648 22.6241 6.10503 22.4756Z" fill="#A6A6A6"/>
</g>
<defs>
<clipPath id="clip0_5507_340">
<rect width="25.3482" height="35.9099" fill="white"/>
</clipPath>
</defs>
</svg>
